<svg xmlns="http://www.w3.org/2000/svg" width="500" height="500" preserveAspectRatio="none" style="display:block" viewBox="0 0 1000 1000"><path fill="#213153" d="M146.879 65.865c169.104 1.912 341.583.644 510.933.394l137.47-.123c17.9-.075 62.3-1.24 78.36 1.065a104.15 104.15 0 0 1 56.53 27.487c22.34 21.215 31.07 49.652 31.25 79.67.28 47.205.03 94.49.06 141.687l-.01 300.22.16 149.35c.01 20.73 1.09 63.56-1.7 82.18a99.5 99.5 0 0 1-26.46 53.63c-26.46 27.54-50.89 31.79-86.85 32.53-54.03-.79-110.35-.18-164.57-.15l-359.536.06-123.12.25c-21.832.02-54.746.82-75.715-2.23a95.7 95.7 0 0 1-50.76-24.09c-21.331-19.84-34.194-44.31-34.541-73.62-.5-42.3-.021-84.91.033-127.23l-.11-267.278.138-173.428c-.157-26.33-.416-52.539-.201-78.658-.716-34.354 2.795-63.924 27.947-89.736 23.636-24.256 47.755-30.93 80.692-31.98"/><path fill="#f8f7f0" d="M148.028 329.82c46.658-1.129 97.133-.169 144.015-.188l283.899.017 124.57.01c22.29-.046 45.23-1.03 67.31 1.28 5.41.567 6.57 9.124 6.61 13.575.18 21.364.65 43.037-.28 64.332-.13 2.862-5.3 6.41-7.49 7.674l-438.106.056-119.571-.022c-14.407.022-50.631.972-63.447-1.09-11.031-6.674-3.944-46.475-5.935-59.35-1.594-10.305-2.372-21.41 8.425-26.295zM425.4 559.444l302.622.12 80.24.07c9.59.02 45.23-1.61 48.85 3.9 5.3 8.09 2.02 61.35 2.49 74 .12 3.27-5.27 6.5-7.48 7.65-31.65.8-66.1.1-98.01.1l-191.11.03H473.22c-15.59 0-31.71.62-47.201-1.05-6.623.18-8.54-7.21-8.61-13.38-.24-21.08-.397-43.08.723-64.13.182-3.43 4.595-5.95 7.268-7.31"/></svg>